General
Complete name                    : Coraline.avi
Format                           : AVI
Format/Info                      : Audio Video Interleave
File size                        : 706 MiB
Duration                         : 1h 36mn
Overall bit rate                 : 1 024 Kbps

Video
ID                               : 0
Format                           : MPEG-4 Visual
Codec ID/Hint                    : XviD
Duration                         : 1h 36mn
Bit rate                         : 883 Kbps
Width                            : 720 pixels
Height                           : 552 pixels
Display aspect ratio             : 1.855
Frame rate                       : 25.000 fps
Resolution                       : 8 bits
Colorimetry                      : 4:2:0
Scan type                        : Progressive
Bits/(Pixel*Frame)               : 0.089
Stream size                      : 609 MiB (86%)
Writing library                  : XviD 1.1.2 (UTC 2006-11-01)

Audio
ID                               : 1
Format                           : MPEG Audio
Codec ID                         : 55
Codec ID/Hint                    : MP3
Duration                         : 1h 36mn
Bit rate mode                    : Constant
Bit rate                         : 128 Kbps
Channel(s)                       : 2 channels
Sampling rate                    : 48.0 KHz
Stream size                      : 88.3 MiB (12%)
Alignment                        : Split accross interleaves
Interleave, duration             : 24 ms (0.60 video frame)
Writing library                  : LAME3.98



General..........................: Optional subtitles in .srt

Complete name                    : Coraline.Dan.srt
File size                        : 60.0 KiB

General
Complete name                    : Coraline.Fin.srt
File size                        : 61.8 KiB

General
Complete name                    : Coraline.Nor.srt
File size                        : 60.5 KiB

General
Complete name                    : Coraline.Swe.srt
File size                        : 61.0 KiB

